<svg xmlns="http://www.w3.org/2000/svg" viewBox="0 0 420 160" role="img" aria-labelledby="title desc">
  <title id="title">Logotipo OMR Studio - Versao escura</title>
  <desc id="desc">Balão cinza-escuro com engrenagem clara e texto OMR Studio em tons de cinza para fundos claros.</desc>
  <g transform="translate(0 0)">
    <path fill="#1E1E24" d="M120 16h120a48 48 0 0 1 48 48v36a48 48 0 0 1-48 48h-60l-36 36v-36h-24a48 48 0 0 1-48-48V64a48 48 0 0 1 48-48z"/>
    <g transform="translate(120 20)">
      <circle cx="60" cy="60" r="34" fill="#1E1E24"/>
    </g>
    <g transform="translate(120 20)">
      <circle cx="60" cy="60" r="26" fill="none" stroke="#F5F6F8" stroke-width="12" stroke-linecap="round" stroke-dasharray="38 26"/>
      <circle cx="60" cy="60" r="14" fill="#F5F6F8"/>
      <circle cx="60" cy="60" r="6" fill="#1E1E24"/>
    </g>
  </g>
  <g font-family="'Montserrat', 'Inter', -apple-system, BlinkMacSystemFont, 'Segoe UI', sans-serif" font-weight="700">
    <text x="260" y="88" font-size="56" fill="#1E1E24" letter-spacing="0.02em">OMR</text>
    <text x="260" y="130" font-size="48" fill="#4A4A54" letter-spacing="0.02em">Studio</text>
  </g>
</svg>
